<svg height="512pt" viewBox="-51 0 512 512" width="512pt" xmlns="http://www.w3.org/2000/svg"><path d="m25.601562 179.199219h358.398438c9.425781 0 17.066406 7.640625 17.066406 17.066406v290.132813c0 9.425781-7.640625 17.066406-17.066406 17.066406h-358.398438c-9.425781 0-17.066406-7.640625-17.066406-17.066406v-290.132813c0-9.425781 7.640625-17.066406 17.066406-17.066406zm0 0" fill="#e3e7f2"/><path d="m25.601562 179.199219h332.796876c9.425781 0 17.066406 7.640625 17.066406 17.066406v290.132813c0 9.425781-7.640625 17.066406-17.066406 17.066406h-332.796876c-9.425781 0-17.066406-7.640625-17.066406-17.066406v-290.132813c0-9.425781 7.640625-17.066406 17.066406-17.066406zm0 0" fill="#e3e7f2"/><path d="m204.800781 8.535156c-4.105469-.035156-8.210937.195313-12.289062.679688h-.253907c-.171874 0-.34375-.085938-.515624 0h-.082032c-65.238281 6.773437-114.816406 61.730468-114.859375 127.320312v42.664063h42.664063v-42.664063c.019531-42.109375 30.746094-77.910156 72.363281-84.3125.171875-.085937.257813-.085937.34375 0 4.171875-.683594 8.398437-1.027344 12.628906-1.023437 47.128907 0 85.332031 38.207031 85.332031 85.335937v42.664063h42.667969v-42.664063c-.023437-70.683594-57.316406-127.976562-128-128zm0 0" fill="#d4e1f4"/><path d="m332.800781 136.535156v42.664063h-25.601562v-42.664063c-.054688-65.519531-49.53125-120.441406-114.6875-127.320312 4.078125-.484375 8.183593-.714844 12.289062-.679688 70.683594.023438 127.976563 57.316406 128 128zm0 0" fill="#a4c2f7"/><path d="m102.398438 136.535156c.042968-65.589844 49.625-120.546875 114.859374-127.320312h.085938c.171875-.085938.339844 0 .511719 0h.164062c-4.394531-.449219-8.804687-.679688-13.21875-.679688-4.105469-.035156-8.210937.195313-12.289062.679688h-.253907c-.171874 0-.34375-.085938-.515624 0h-.082032c-65.238281 6.773437-114.816406 61.730468-114.859375 127.320312v42.664063h25.597657zm0 0" fill="#fff"/><path d="m25.601562 503.464844h25.597657c-9.414063-.027344-17.039063-7.652344-17.066407-17.066406v-290.132813c.027344-9.414063 7.652344-17.039063 17.066407-17.066406h-25.597657c-9.414062.027343-17.039062 7.652343-17.066406 17.066406v290.132813c.027344 9.414062 7.652344 17.039062 17.066406 17.066406zm0 0" fill="#fff"/><path d="m17.066406 196.265625v290.132813h-17.066406v-290.132813zm0 0" fill="#fff"/><g fill="#428dff"><path d="m8.535156 238.933594c4.710938 0 8.53125-3.820313 8.53125-8.535156v-34.132813h-17.066406v34.132813c0 4.714843 3.820312 8.535156 8.535156 8.535156zm0 0"/><path d="m0 486.398438h17.066406v-187.730469c0-4.714844-3.820312-8.535157-8.53125-8.535157-4.714844 0-8.535156 3.820313-8.535156 8.535157zm0 0"/><path d="m17.066406 264.535156c-.03125-2.261718-.917968-4.425781-2.472656-6.058594l-1.28125-1.027343c-.476562-.320313-.992188-.578125-1.535156-.765625-.484375-.246094-1.003906-.421875-1.539063-.511719-.5625-.097656-1.132812-.152344-1.703125-.171875-2.261718.03125-4.425781.917969-6.058594 2.476562-.773437.8125-1.382812 1.769532-1.792968 2.8125-1.289063 3.183594-.5859378 6.828126 1.792968 9.304688.8125.769531 1.769532 1.378906 2.8125 1.789062 1.027344.4375 2.128907.671876 3.246094.683594 2.269532.023438 4.453125-.867187 6.058594-2.472656s2.496094-3.789062 2.472656-6.058594zm0 0"/><path d="m384 512h-358.398438c-14.140624 0-25.601562-11.460938-25.601562-25.601562 0-4.710938 3.820312-8.53125 8.535156-8.53125 4.710938 0 8.53125 3.820312 8.53125 8.53125 0 4.714843 3.820313 8.535156 8.535156 8.535156h358.398438c4.710938 0 8.535156-3.820313 8.535156-8.535156v-290.132813c0-4.710937-3.824218-8.53125-8.535156-8.53125h-358.398438c-4.714843 0-8.535156 3.820313-8.535156 8.53125 0 4.714844-3.820312 8.535156-8.53125 8.535156-4.714844 0-8.535156-3.820312-8.535156-8.535156 0-14.136719 11.460938-25.597656 25.601562-25.597656h358.398438c14.136719 0 25.601562 11.460937 25.601562 25.597656v290.132813c0 14.140624-11.464843 25.601562-25.601562 25.601562zm0 0"/><path d="m332.800781 187.734375h-42.667969c-4.710937 0-8.53125-3.820313-8.53125-8.535156v-42.664063c0-42.417968-34.386718-76.800781-76.800781-76.800781-42.417969 0-76.800781 34.382813-76.800781 76.800781v42.664063c0 4.714843-3.820312 8.535156-8.535156 8.535156h-42.664063c-4.714843 0-8.535156-3.820313-8.535156-8.535156v-42.664063c0-75.40625 61.128906-136.535156 136.535156-136.535156s136.53125 61.128906 136.53125 136.535156v42.664063c0 2.265625-.898437 4.433593-2.5 6.035156-1.597656 1.601563-3.769531 2.5-6.03125 2.5zm-34.132812-17.066406h25.597656v-34.132813c0-65.980468-53.484375-119.46875-119.464844-119.46875s-119.46875 53.488282-119.46875 119.46875v34.132813h25.601563v-34.132813c0-51.84375 42.023437-93.867187 93.867187-93.867187 51.839844 0 93.867188 42.023437 93.867188 93.867187zm0 0"/><path d="m390.742188 307.199219h-30.992188c-4.714844 0-8.535156-3.820313-8.535156-8.53125 0-4.714844 3.820312-8.535157 8.535156-8.535157h30.992188c4.710937 0 8.53125 3.820313 8.53125 8.535157 0 4.710937-3.820313 8.53125-8.53125 8.53125zm0 0"/><path d="m390.742188 366.933594h-30.992188c-4.714844 0-8.535156-3.820313-8.535156-8.535156 0-4.710938 3.820312-8.53125 8.535156-8.53125h30.992188c4.710937 0 8.53125 3.820312 8.53125 8.53125 0 4.714843-3.820313 8.535156-8.53125 8.535156zm0 0"/><path d="m390.742188 435.199219h-30.992188c-4.714844 0-8.535156-3.820313-8.535156-8.53125 0-4.714844 3.820312-8.535157 8.535156-8.535157h30.992188c4.710937 0 8.53125 3.820313 8.53125 8.535157 0 4.710937-3.820313 8.53125-8.53125 8.53125zm0 0"/><path d="m49.851562 307.199219h-30.992187c-4.714844 0-8.535156-3.820313-8.535156-8.53125 0-4.714844 3.820312-8.535157 8.535156-8.535157h30.992187c4.714844 0 8.535157 3.820313 8.535157 8.535157 0 4.710937-3.820313 8.53125-8.535157 8.53125zm0 0"/><path d="m49.851562 366.933594h-30.992187c-4.714844 0-8.535156-3.820313-8.535156-8.535156 0-4.710938 3.820312-8.53125 8.535156-8.53125h30.992187c4.714844 0 8.535157 3.820312 8.535157 8.53125 0 4.714843-3.820313 8.535156-8.535157 8.535156zm0 0"/><path d="m49.851562 435.199219h-30.992187c-4.714844 0-8.535156-3.820313-8.535156-8.53125 0-4.714844 3.820312-8.535157 8.535156-8.535157h30.992187c4.714844 0 8.535157 3.820313 8.535157 8.535157 0 4.710937-3.820313 8.53125-8.535157 8.53125zm0 0"/><path d="m120.011719 435.6875c-3.277344-.003906-6.265625-1.882812-7.6875-4.835938-1.417969-2.953124-1.023438-6.460937 1.023437-9.023437 2.476563-3.105469 4.828125-6.308594 7.058594-9.609375 2.285156-3.414062 3.15625-4.691406 4.972656-7.925781 2.328125-4.058594 7.488282-5.484375 11.570313-3.199219s5.5625 7.429688 3.320312 11.535156c-1.636719 2.953125-3.425781 5.820313-5.359375 8.59375-2.839844 4.214844-5.460937 7.789063-8.222656 11.253906-1.621094 2.03125-4.078125 3.210938-6.675781 3.210938zm0 0"/><path d="m147.550781 382.695312c-.8125 0-1.621093-.117187-2.398437-.34375-2.171875-.632812-4.003906-2.105468-5.089844-4.09375-1.089844-1.984374-1.339844-4.320312-.703125-6.496093l.902344-3.25c1.042969-3.925781 1.921875-7.925781 2.636719-11.996094.710937-4.039063 1.253906-8.203125 1.621093-12.382813.367188-4.183593.546875-8.449218.546875-12.691406 0-4.039062.40625-8.070312 1.21875-12.03125.785156-3.847656 1.949219-7.605468 3.484375-11.21875 4.515625-10.667968 12.027344-19.792968 21.621094-26.277344 6.457031-4.359374 13.707031-7.414062 21.335937-8.992187 3.972657-.808594 8.019532-1.214844 12.074219-1.210937 4.710938 0 8.53125 3.820312 8.53125 8.53125 0 4.714843-3.820312 8.535156-8.53125 8.535156-2.890625-.003906-5.769531.28125-8.601562.851562-13.761719 2.839844-25.246094 12.261719-30.722657 25.199219-1.089843 2.578125-1.921874 5.253906-2.480468 7.996094-.574219 2.835937-.863282 5.71875-.855469 8.609375 0 4.738281-.203125 9.515625-.613281 14.175781s-1.015625 9.335937-1.816406 13.847656c-.804688 4.515625-1.785157 9.039063-2.945313 13.441407l-1.023437 3.644531c-1.058594 3.644531-4.398438 6.148437-8.191407 6.152343zm0 0"/><path d="m248.890625 400.015625c-.675781.003906-1.355469-.074219-2.011719-.238281-4.578125-1.109375-7.390625-5.722656-6.28125-10.300782.734375-3.054687 1.417969-6.140624 2.039063-9.238281 1.058593-5.257812 1.945312-10.574219 2.664062-15.949219.714844-5.378906 1.253907-10.800781 1.621094-16.273437.363281-5.46875.542969-10.992187.542969-16.574219.011718-2.886718-.277344-5.769531-.851563-8.601562-1.117187-5.453125-3.296875-10.636719-6.417969-15.246094-1.527343-2.269531-3.273437-4.386719-5.203124-6.324219-.53125-.519531-1.078126-1.03125-1.632813-1.535156-3.484375-3.175781-3.734375-8.574219-.5625-12.058594 3.175781-3.484375 8.574219-3.738281 12.058594-.5625.742187.683594 1.484375 1.375 2.203125 2.089844 11.207031 11.195313 17.496094 26.394531 17.476562 42.238281 0 5.882813-.199218 11.847656-.582031 17.707032-.382813 5.863281-.980469 11.710937-1.707031 17.402343-.726563 5.691407-1.707032 11.425781-2.839844 17.066407-.667969 3.316406-1.398438 6.613281-2.195312 9.898437-.9375 3.828125-4.375 6.515625-8.320313 6.5zm0 0"/><path d="m222.4375 466.621094c-3.050781.003906-5.875-1.621094-7.402344-4.261719s-1.53125-5.898437-.003906-8.539063c2.578125-4.550781 5.015625-9.152343 7.3125-13.808593 2.300781-4.652344 4.449219-9.417969 6.453125-14.292969l1.328125-3.277344c1.828125-4.242187 6.699219-6.261718 10.992188-4.554687 4.289062 1.703125 6.449218 6.515625 4.863281 10.855469l-1.414063 3.503906c-2.140625 5.171875-4.4375 10.265625-6.894531 15.277344-2.460937 5.011718-5.0625 9.929687-7.808594 14.753906-1.511719 2.679687-4.347656 4.339844-7.425781 4.34375zm0 0"/><path d="m174.078125 477.867188c-3.195313-.003907-6.125-1.792969-7.585937-4.640626-1.460938-2.84375-1.207032-6.269531.660156-8.867187l8.574218-11.949219c2.867188-4.152344 5.710938-8.609375 8.371094-13.132812 2.664063-4.519532 5.171875-9.199219 7.46875-13.863282 2.292969-4.667968 4.496094-9.578124 6.464844-14.507812 1.972656-4.933594 3.800781-9.976562 5.394531-15.003906 1.597657-5.023438 3.054688-10.296875 4.265625-15.503906 1.214844-5.203126 2.28125-10.605469 3.117188-15.949219.835937-5.339844 1.484375-10.878907 1.902344-16.347657.417968-5.472656.621093-11.035156.621093-16.660156 0-.570312-.0625-1.144531-.179687-1.703125-.109375-.539062-.269532-1.058593-.484375-1.5625-.421875-1.011719-1.039063-1.933593-1.816407-2.707031-.394531-.390625-.824218-.746094-1.28125-1.058594-.460937-.308594-.949218-.578125-1.460937-.800781-.503906-.207031-1.027344-.367187-1.558594-.476563-1.71875-.363281-3.503906-.191406-5.121093.492188-1.007813.433594-1.921876 1.054688-2.695313 1.828125-.78125.78125-1.40625 1.707031-1.835937 2.722656-.21875.511719-.382813 1.046875-.496094 1.59375-.113282.5625-.171875 1.132813-.167969 1.707031 0 4.714844-3.824219 8.535157-8.535156 8.535157-4.710938 0-8.535157-3.820313-8.535157-8.535157 0-1.71875.175782-3.433593.523438-5.121093 1.007812-4.921875 3.441406-9.4375 6.996094-12.984375 3.546875-3.574219 8.066406-6.015625 12.996094-7.023438 3.394531-.6875 6.894531-.6875 10.292968 0 3.273438.667969 6.382813 1.980469 9.144532 3.855469 2.726562 1.839844 5.074218 4.1875 6.914062 6.914063.925781 1.363281 1.714844 2.8125 2.355469 4.332031.65625 1.550781 1.160156 3.164062 1.5 4.8125.347656 1.699219.519531 3.429687.523437 5.164062 0 6.023438-.230468 12.09375-.703125 18.039063-.46875 5.949218-1.148437 11.855468-2.054687 17.664062-.90625 5.8125-2.03125 11.5625-3.363282 17.230469-1.332031 5.664063-2.890624 11.253906-4.632812 16.75s-3.675781 10.886719-5.828125 16.214844c-2.148437 5.324219-4.480469 10.546875-6.980469 15.621093-2.5 5.078126-5.195312 10.089844-8.070312 14.988282-2.878906 4.894531-5.976563 9.683594-9.125 14.292968l-8.660156 12.089844c-1.601563 2.226563-4.171876 3.546875-6.914063 3.550782zm0 0"/><path d="m148.480469 454.828125c-3.253907-.003906-6.222657-1.859375-7.65625-4.78125-1.429688-2.921875-1.078125-6.402344.914062-8.976563 2.910157-3.761718 5.71875-7.679687 8.347657-11.714843 2.625-4.035157 5.117187-8.183594 7.414062-12.390625 2.296875-4.207032 4.460938-8.636719 6.410156-12.996094 1.945313-4.359375 3.769532-9.019531 5.355469-13.570312 1.589844-4.546876 3.039063-9.34375 4.269531-14.078126 1.089844-3.980468 1.980469-8.011718 2.667969-12.082031.515625-3.007812 2.589844-5.511719 5.449219-6.570312 2.859375-1.058594 6.066406-.515625 8.414062 1.433593 2.347656 1.945313 3.476563 4.996094 2.964844 8.003907-.945312 5.535156-1.707031 8.421875-2.976562 13.480469-1.339844 5.199218-2.910157 10.386718-4.667969 15.4375-1.757813 5.050781-3.710938 9.984374-5.878907 14.863281-2.167968 4.882812-4.488281 9.578125-7.023437 14.234375-2.535156 4.660156-5.238281 9.175781-8.117187 13.578125-2.875 4.402343-5.972657 8.703125-9.136719 12.800781-1.613281 2.09375-4.105469 3.324219-6.75 3.328125zm0 0"/><path d="m97.28125 409.207031c-3.191406-.003906-6.113281-1.789062-7.574219-4.628906-1.460937-2.835937-1.214843-6.253906.636719-8.851563 1.613281-2.28125 3.15625-4.617187 4.605469-7.007812 1.453125-2.390625 2.808593-4.839844 4.089843-7.347656 1.277344-2.507813 2.4375-5.042969 3.523438-7.679688 1.082031-2.636718 2.066406-5.257812 2.953125-7.960937.886719-2.707031 1.707031-5.4375 2.347656-8.226563.636719-2.789062 1.253907-5.605468 1.703125-8.472656.453125-2.867188.855469-5.769531 1.050782-8.703125.195312-2.9375.316406-5.890625.316406-8.886719 0-4.710937 3.820312-8.53125 8.53125-8.53125 4.714844 0 8.535156 3.820313 8.535156 8.53125 0 3.460938-.136719 6.875-.410156 10.242188-.273438 3.367187-.675782 6.71875-1.210938 10.050781-.53125 3.3125-1.1875 6.582031-1.980468 9.804687-.777344 3.210938-1.707032 6.375-2.703126 9.492188-1 3.113281-2.167968 6.191406-3.414062 9.207031-1.246094 3.011719-2.613281 5.972657-4.070312 8.832031-1.460938 2.855469-3.046876 5.714844-4.710938 8.464844-1.664062 2.746094-3.414062 5.453125-5.316406 8.0625-1.578125 2.25-4.152344 3.597656-6.902344 3.609375zm0 0"/><path d="m126.515625 305.953125c-2.859375 0-5.53125-1.4375-7.109375-3.824219-1.578125-2.382812-1.855469-5.402344-.742188-8.035156 2.246094-5.316406 5.027344-10.386719 8.304688-15.140625 13.710938-20.347656 34.847656-34.515625 58.878906-39.472656 12.476563-2.527344 25.332032-2.527344 37.8125 0 24.039063 4.96875 45.183594 19.136719 58.929688 39.472656l1.117187 1.648437c2.359375 3.238282 4.308594 6.753907 5.804688 10.46875 1.796875 4.332032-.242188 9.304688-4.558594 11.128907-4.320313 1.828125-9.304687-.171875-11.160156-4.480469-1.054688-2.667969-2.457031-5.183594-4.171875-7.484375l-1.179688-1.707031c-5.523437-8.183594-12.570312-15.230469-20.753906-20.761719-8.304688-5.609375-17.632812-9.535156-27.449219-11.550781-10.21875-2.070313-20.75-2.070313-30.96875 0-9.820312 2.011718-19.144531 5.933594-27.453125 11.542968-4.074218 2.765626-7.878906 5.910157-11.363281 9.386719-3.484375 3.484375-6.628906 7.292969-9.386719 11.375-2.667968 3.835938-4.921875 7.933594-6.734375 12.238281-1.332031 3.136719-4.40625 5.179688-7.816406 5.195313zm0 0"/><path d="m268.007812 451.199219c-1.128906 0-2.242187-.226563-3.277343-.664063-4.351563-1.8125-6.410157-6.804687-4.601563-11.152344 1.707032-4.15625 3.335938-8.355468 4.890625-12.605468 1.554688-4.25 2.976563-8.550782 4.265625-12.902344 1.332032-4.347656 2.558594-8.734375 3.679688-13.167969 1.121094-4.429687 2.136718-8.902343 3.054687-13.414062.914063-4.515625 1.71875-9.066407 2.40625-13.652344s1.257813-9.210937 1.707031-13.875c.46875-4.652344.851563-9.386719 1.058594-14.070313.203125-4.6875.410156-9.480468.410156-14.253906 0-4.710937 3.820313-8.53125 8.53125-8.53125 4.714844 0 8.535157 3.820313 8.535157 8.53125 0 5.070313-.125 10.109375-.375 15.113282-.253907 5.007812-.625 9.980468-1.121094 14.917968-.503906 4.949219-1.121094 9.851563-1.851563 14.710938-.726562 4.859375-1.582031 9.695312-2.558593 14.507812-.972657 4.789063-2.054688 9.535156-3.242188 14.230469-1.191406 4.699219-2.492187 9.355469-3.910156 13.960937-1.402344 4.609376-2.921875 9.160157-4.554687 13.65625-1.613282 4.503907-3.355469 8.96875-5.179688 13.378907-1.316406 3.1875-4.417969 5.273437-7.867188 5.28125zm0 0"/><path d="m85.332031 339.976562c-4.710937 0-8.53125-3.820312-8.53125-8.535156-.015625-8.660156.84375-17.296875 2.558594-25.785156 1.699219-8.246094 4.210937-16.304688 7.5-24.054688 6.265625-14.796874 15.257813-28.277343 26.507813-39.75 2.132812-2.179687 5.265624-3.050781 8.21875-2.292968 2.953124.757812 5.277343 3.035156 6.097656 5.972656.820312 2.9375.011718 6.089844-2.125 8.265625-9.746094 9.949219-17.542969 21.636719-22.980469 34.460937-2.835937 6.703126-4.996094 13.675782-6.449219 20.8125-1.507812 7.359376-2.265625 14.859376-2.261718 22.371094 0 4.714844-3.820313 8.535156-8.535157 8.535156zm0 0"/><path d="m143.359375 237.515625c-3.832031 0-7.191406-2.550781-8.21875-6.242187-1.027344-3.691407.527344-7.613282 3.808594-9.59375 12.382812-7.453126 25.945312-12.738282 40.105469-15.632813 17.019531-3.457031 34.558593-3.457031 51.574218 0 3.714844.753906 7.367188 1.671875 10.949219 2.746094 2.957031.84375 5.230469 3.214843 5.953125 6.203125.71875 2.984375-.21875 6.132812-2.464844 8.230468-2.242187 2.101563-5.445312 2.835938-8.378906 1.917969-3.105469-.933593-6.265625-1.726562-9.480469-2.382812-14.757812-2.996094-29.96875-2.996094-44.730469 0-12.253906 2.507812-23.988281 7.085937-34.703124 13.535156-1.332032.804687-2.859376 1.226563-4.414063 1.21875zm0 0"/><path d="m319.148438 397.355469c-.503907 0-1-.042969-1.496094-.128907-2.226563-.394531-4.210938-1.65625-5.507813-3.511718-1.296875-1.855469-1.804687-4.148438-1.410156-6.378906.40625-2.273438.792969-4.550782 1.152344-6.824219.355469-2.296875.6875-4.585938 1.003906-6.878907.316406-2.296874.597656-4.625.855469-6.9375.253906-2.3125.503906-4.644531.714844-6.972656.214843-2.328125.402343-4.660156.5625-6.996094.164062-2.339843.300781-4.6875.402343-7.050781.101563-2.363281.195313-4.71875.257813-7.089843.058594-2.371094.074218-4.738282.074218-7.125.003907-7.511719-.753906-15.003907-2.25-22.367188-4.386718-21.246094-14.902343-40.742188-30.242187-56.082031-4.660156-4.652344-9.71875-8.886719-15.121094-12.652344-3.871093-2.691406-4.824219-8.011719-2.136719-11.878906 2.691407-3.871094 8.011719-4.824219 11.878907-2.132813 19.859375 13.820313 35.410156 32.976563 44.851562 55.253906 3.277344 7.746094 5.773438 15.796876 7.460938 24.035157 1.714843 8.488281 2.570312 17.128906 2.558593 25.789062 0 2.507813-.027343 5.015625-.085937 7.519531-.058594 2.5-.144531 5-.265625 7.492188-.113281 2.472656-.253906 4.945312-.425781 7.414062-.171875 2.484376-.367188 4.941407-.589844 7.390626-.21875 2.449218-.476563 4.914062-.757813 7.347656-.28125 2.429687-.582031 4.871094-.90625 7.296875-.324218 2.421875-.679687 4.828125-1.058593 7.234375-.375 2.40625-.78125 4.789062-1.203125 7.167968-.707032 4.054688-4.203125 7.023438-8.316406 7.066407zm0 0"/></g></svg>