<?xml version="1.0" encoding="iso-8859-1"?>
<!-- Generator: Adobe Illustrator 19.0.0, SVG Export Plug-In . SVG Version: 6.00 Build 0)  -->
<svg version="1.1" id="Capa_1" xmlns="http://www.w3.org/2000/svg" xmlns:xlink="http://www.w3.org/1999/xlink" x="0px" y="0px"
	 viewBox="0 0 512.001 512.001" style="enable-background:new 0 0 512.001 512.001;" xml:space="preserve">
<g transform="translate(-1)">
	<g transform="translate(2 1)">
		<path style="fill:#D4E1F4;" d="M323.318,263.534V118.339c0.165-18.27-7.202-35.801-20.366-48.47
			c-12.958-12.906-30.598-20.001-48.883-19.661c-37.909,1.41-67.771,32.805-67.284,70.737v1.79c0,11.782-9.551,21.333-21.333,21.333
			c-11.782,0-21.333-9.551-21.333-21.333v-3.072C143.825,58.064,193.497,7.878,255.095,7.534
			c29.49-0.087,57.76,11.764,78.373,32.853c20.983,21.027,32.691,49.569,32.517,79.275l0.002,143.872H323.318z"/>
		<path style="fill:#7FACFA;" d="M161.185,246.468h230.4c14.138,0,25.6,11.462,25.6,25.6v204.8c0,14.138-11.462,25.6-25.6,25.6
			h-230.4c-14.138,0-25.6-11.462-25.6-25.6v-204.8C135.585,257.929,147.046,246.468,161.185,246.468z"/>
		<path style="fill:#FFFFFF;" d="M118.518,246.468h230.4c14.138,0,25.6,11.462,25.6,25.6v204.8c0,14.138-11.462,25.6-25.6,25.6
			h-230.4c-14.138,0-25.6-11.462-25.6-25.6v-204.8C92.918,257.929,104.379,246.468,118.518,246.468z"/>
		
			<linearGradient id="SVGID_1_" gradientUnits="userSpaceOnUse" x1="-49.7254" y1="651.4445" x2="-48.8115" y2="650.4697" gradientTransform="matrix(273.0667 0 0 -256 13708.8633 167019.7344)">
			<stop  offset="0" style="stop-color:#D4E1F4"/>
			<stop  offset="0.1717" style="stop-color:#D4E1F4"/>
			<stop  offset="0.2" style="stop-color:#D4E1F4"/>
			<stop  offset="0.2001" style="stop-color:#DAE4F4"/>
			<stop  offset="0.2007" style="stop-color:#EBEBF4"/>
			<stop  offset="0.2014" style="stop-color:#F6F1F4"/>
			<stop  offset="0.2023" style="stop-color:#FDF4F4"/>
			<stop  offset="0.205" style="stop-color:#FFF5F4"/>
			<stop  offset="0.2522" style="stop-color:#FFF5F4"/>
			<stop  offset="0.26" style="stop-color:#FFF5F4"/>
			<stop  offset="0.26" style="stop-color:#D4E1F4"/>
			<stop  offset="0.3974" style="stop-color:#D4E1F4"/>
			<stop  offset="0.42" style="stop-color:#D4E1F4"/>
			<stop  offset="0.4201" style="stop-color:#DAE4F4"/>
			<stop  offset="0.4207" style="stop-color:#EBEBF4"/>
			<stop  offset="0.4214" style="stop-color:#F6F1F4"/>
			<stop  offset="0.4223" style="stop-color:#FDF4F4"/>
			<stop  offset="0.425" style="stop-color:#FFF5F4"/>
			<stop  offset="0.4894" style="stop-color:#FFF5F4"/>
			<stop  offset="0.5" style="stop-color:#FFF5F4"/>
			<stop  offset="0.5" style="stop-color:#F9F2F4"/>
			<stop  offset="0.5001" style="stop-color:#E8EBF4"/>
			<stop  offset="0.5003" style="stop-color:#DDE5F4"/>
			<stop  offset="0.5005" style="stop-color:#D6E2F4"/>
			<stop  offset="0.501" style="stop-color:#D4E1F4"/>
			<stop  offset="0.7062" style="stop-color:#D4E1F4"/>
			<stop  offset="0.74" style="stop-color:#D4E1F4"/>
			<stop  offset="0.741" style="stop-color:#FFF5F4"/>
			<stop  offset="0.8346" style="stop-color:#FFF5F4"/>
			<stop  offset="0.85" style="stop-color:#FFF5F4"/>
			<stop  offset="0.851" style="stop-color:#D4E1F4"/>
		</linearGradient>
		<path style="fill:url(#SVGID_1_);" d="M144.118,246.468h221.867c14.138,0,25.6,11.462,25.6,25.6v204.8
			c0,14.138-11.462,25.6-25.6,25.6H144.118c-14.138,0-25.6-11.462-25.6-25.6v-204.8
			C118.518,257.929,129.979,246.468,144.118,246.468z"/>
	</g>
	<g>
		<g>
			<path style="fill:#428DFF;" d="M180.718,382.376c-3.451-0.001-6.562-2.08-7.882-5.268s-0.591-6.858,1.849-9.298
				c45.302-45.371,118.363-46.824,165.433-3.292c3.456,3.203,3.662,8.602,0.458,12.058c-3.203,3.456-8.602,3.662-12.058,0.458
				c-40.344-37.296-102.95-36.041-141.767,2.842C185.153,381.479,182.982,382.379,180.718,382.376z"/>
			<path style="fill:#428DFF;" d="M156.585,358.234c-3.451-0.001-6.562-2.08-7.882-5.268c-1.32-3.188-0.591-6.858,1.849-9.298
				c58.276-58.339,152.242-60.187,212.767-4.183c2.24,2.071,3.205,5.181,2.529,8.156c-0.676,2.975-2.889,5.363-5.804,6.263
				c-2.915,0.9-6.089,0.174-8.324-1.903c-53.798-49.767-137.309-48.118-189.1,3.733C161.02,357.337,158.848,358.237,156.585,358.234
				z"/>
			<path style="fill:#428DFF;" d="M204.851,406.518c-3.451-0.001-6.562-2.08-7.882-5.268c-1.32-3.188-0.591-6.858,1.849-9.298
				c32.327-32.402,84.483-33.462,118.1-2.4c2.236,2.072,3.196,5.18,2.52,8.152s-2.888,5.358-5.8,6.258
				c-2.912,0.9-6.084,0.178-8.32-1.894c-26.89-24.825-68.591-23.964-94.433,1.95C209.286,405.621,207.115,406.521,204.851,406.518z"
				/>
			<path style="fill:#428DFF;" d="M204.868,406.526c-3.451-0.001-6.562-2.08-7.882-5.268c-1.32-3.188-0.591-6.858,1.849-9.298
				c32.335-32.42,84.517-33.473,118.133-2.383c3.463,3.191,3.688,8.584,0.501,12.051c-3.187,3.467-8.58,3.698-12.051,0.515
				c-26.882-24.901-68.648-24.069-94.517,1.883C209.303,405.629,207.132,406.529,204.868,406.526z"/>
			<path style="fill:#428DFF;" d="M228.935,430.593c-3.46,0-6.577-2.09-7.892-5.29s-0.568-6.878,1.892-9.311
				c19.464-19.378,50.747-19.959,70.917-1.317c3.463,3.194,3.681,8.591,0.487,12.055c-3.194,3.463-8.591,3.681-12.055,0.487
				c-6.27-5.873-14.55-9.124-23.141-9.083c-9.075-0.009-17.781,3.585-24.208,9.992C233.339,429.708,231.182,430.595,228.935,430.593
				z"/>
			<path style="fill:#428DFF;" d="M259.185,460.801c-1.145-0.004-2.279-0.237-3.333-0.683c-2.1-0.837-3.774-2.487-4.641-4.575
				c-0.867-2.088-0.855-4.438,0.033-6.517c0.434-1.055,1.074-2.013,1.883-2.817c0.369-0.406,0.799-0.751,1.275-1.025
				c0.435-0.337,0.926-0.597,1.45-0.767c0.515-0.246,1.062-0.42,1.625-0.517c1.094-0.25,2.231-0.25,3.325,0
				c0.563,0.096,1.11,0.27,1.625,0.517c0.525,0.168,1.016,0.428,1.45,0.767c0.478,0.273,0.911,0.619,1.283,1.025
				c0.779,0.827,1.413,1.779,1.875,2.817c1.38,3.187,0.632,6.897-1.875,9.301C263.576,459.913,261.426,460.804,259.185,460.801z"/>
			<path style="fill:#428DFF;" d="M367.985,256.001c-2.264,0.001-4.435-0.897-6.035-2.498c-1.601-1.601-2.499-3.772-2.498-6.035
				V120.659c0.209-27.442-10.602-53.821-30.008-73.225c-18.998-19.518-45.112-30.479-72.35-30.367
				c-56.866,0.386-102.691,46.725-102.442,103.592v3.075c0,7.069,5.731,12.8,12.8,12.8c7.069,0,12.8-5.731,12.8-12.8v-1.792
				c-0.509-42.607,33.115-77.814,75.7-79.266c0.367-0.009,0.733-0.009,1.109-0.009c20.181-0.047,39.558,7.91,53.883,22.125
				c14.796,14.271,23.078,33.994,22.908,54.55v128.125c0,4.713-3.82,8.533-8.533,8.533s-8.533-3.821-8.533-8.533V119.343
				c0.148-15.946-6.268-31.251-17.742-42.325c-11.158-11.098-26.263-17.314-42-17.283c-0.283,0-0.567,0-0.858,0.009
				c-33.266,1.289-59.41,28.913-58.866,62.199v1.792c0,16.495-13.372,29.867-29.867,29.867s-29.867-13.372-29.867-29.867v-3.075
				C137.342,54.37,190.804,0.393,257.093,0.001c31.795-0.133,62.281,12.649,84.475,35.417c22.589,22.591,35.179,53.295,34.95,85.242
				v126.808c0.001,2.264-0.897,4.435-2.498,6.035C372.419,255.104,370.248,256.002,367.985,256.001z"/>
			<path style="fill:#428DFF;" d="M393.585,512.001H120.518c-18.844-0.019-34.115-15.29-34.133-34.133
				c0-4.713,3.821-8.533,8.533-8.533c4.713,0,8.533,3.82,8.533,8.533c0.012,9.421,7.646,17.054,17.067,17.067h273.067
				c9.421-0.012,17.054-7.646,17.067-17.067v-204.8c-0.012-9.421-7.646-17.054-17.067-17.067H120.518
				c-9.421,0.012-17.054,7.646-17.067,17.067c0,4.713-3.821,8.533-8.533,8.533c-4.713,0-8.533-3.821-8.533-8.533
				c0.019-18.844,15.29-34.115,34.133-34.133h273.067c18.844,0.019,34.115,15.29,34.133,34.133v204.8
				C427.699,496.711,412.428,511.982,393.585,512.001z"/>
		</g>
		<polygon style="fill:#FFFFFF;" points="103.451,273.068 103.451,384.001 103.451,477.868 86.385,477.868 86.385,384.001 
			86.385,273.068 		"/>
		<g>
			<path style="fill:#428DFF;" d="M94.918,315.734c4.707-0.014,8.52-3.826,8.533-8.533v-34.133H86.385v34.133
				C86.399,311.908,90.211,315.72,94.918,315.734z"/>
			<path style="fill:#428DFF;" d="M86.385,477.868h17.067v-102.4c0-4.713-3.821-8.533-8.533-8.533c-4.713,0-8.533,3.82-8.533,8.533
				V477.868z"/>
			<path style="fill:#428DFF;" d="M103.451,341.334c-0.033-2.259-0.917-4.422-2.475-6.059l-1.279-1.025
				c-0.476-0.324-0.993-0.583-1.538-0.771c-0.484-0.246-1.002-0.417-1.538-0.508c-0.564-0.096-1.133-0.153-1.704-0.171
				c-2.259,0.031-4.423,0.915-6.059,2.475c-2.07,1.994-2.979,4.908-2.409,7.726c0.57,2.818,2.539,5.149,5.222,6.183
				c1.027,0.438,2.13,0.67,3.246,0.684c2.27,0.022,4.453-0.87,6.058-2.475S103.473,343.604,103.451,341.334z"/>
		</g>
	</g>
</g>
<g>
</g>
<g>
</g>
<g>
</g>
<g>
</g>
<g>
</g>
<g>
</g>
<g>
</g>
<g>
</g>
<g>
</g>
<g>
</g>
<g>
</g>
<g>
</g>
<g>
</g>
<g>
</g>
<g>
</g>
</svg>
